<?xml version="1.0" encoding="utf-8"?>
<!-- Generator: Adobe Illustrator 16.0.0, SVG Export Plug-In . SVG Version: 6.00 Build 0)  -->
<!DOCTYPE svg PUBLIC "-//W3C//DTD SVG 1.1//EN" "http://www.w3.org/Graphics/SVG/1.1/DTD/svg11.dtd">
<svg version="1.1" id="Capa_1" xmlns="http://www.w3.org/2000/svg" xmlns:xlink="http://www.w3.org/1999/xlink" x="0px" y="0px"
	 width="500px" height="500px" viewBox="0 0 500 500" enable-background="new 0 0 500 500" xml:space="preserve">
<g>
	<path fill="#F2F2F2" d="M237.392,458.072c-1.791-9.864-11.93-14.144-20.538-15.963c-9.441-1.994-19.166-2.263-28.683-3.767
		c-4.624-0.73-15.757-1.92-16.175-8.268c-0.254-3.881,3.057-7.549,5.324-10.343c3.206-3.95,6.091-7.75,7.945-12.528
		c4.069-10.488-3.1-23.799-12.752-28.339c-10.415-4.899-22.189-0.303-31.91,4.06c-4.374,1.962-8.448,3.771-13.322,3.969
		c-5.455,0.221-10.041-3.119-8.466-8.966c1.24-4.607,4.537-8.658,6.363-13.059c1.574-3.793,2.23-7.928,2.153-12.031
		c-0.12-6.33-3.605-11.987-9.62-14.2c-11.426-4.208-24.435,2.569-34.484,7.458c-2.197,1.066-5.939,2.859-8.321,1.543
		c-3.654-2.018-0.94-9.304-0.085-11.951c2.405-7.44,2.597-18.016-3.039-24.22c-9.651-10.625-26.059-0.424-36.998,2.225
		c-7.071,1.711-4.071,12.594,3,10.882c4.489-1.086,8.801-2.755,13.167-4.237c3.632-1.233,8.068-3.018,11.908-1.858
		c3.452,1.042,2.139,10.454,1.576,12.59c-1.861,7.06-3.81,12.695-0.626,19.798c5.134,11.453,17.165,8.84,26.33,4.382
		c6.896-3.354,14.179-6.859,22.059-6.424c9.987,0.551-0.903,18.365-2.549,21.808c-5.332,11.153-0.973,23.562,11.42,26.886
		c10.816,2.901,20.392-3.149,30.033-6.853c4.61-1.772,9.792-3.313,14.739-2.26c5.645,1.201,9.188,7.61,9.178,13.021
		c-0.01,5.282-5.714,10.181-8.638,14.071c-3.725,4.958-6.286,10.603-5.413,16.921c1.533,11.104,13.66,14.91,23.097,16.619
		c11.756,2.13,24.113,1.769,35.554,5.46c16.247,5.241-2.026,25.076-5.149,34.011c-2.407,6.889,8.498,9.824,10.882,3
		C229.413,479.892,239.816,471.429,237.392,458.072z"/>
</g>
<path fill="#F2F2F2" d="M454.84,65.217c-16.453,9.284-32.414,19.455-49.389,27.789c-16.704,8.199-34.346,14.263-51.775,20.693
	c-3.957,1.46-0.926,7.274,2.985,5.831c17.445-6.435,35.018-12.578,51.775-20.694c17.013-8.24,32.945-18.508,49.39-27.788
	C461.494,68.977,458.523,63.138,454.84,65.217z"/>
<path fill="#F2F2F2" d="M451.06,86.123c-27.126,13.879-54.162,26.918-81.071,40.687c-3.761,1.924-0.762,7.748,3,5.823
	c26.909-13.769,53.932-26.8,81.058-40.679C458.063,89.896,455.079,84.065,451.06,86.123z"/>
<path fill="#F2F2F2" d="M462.227,98.317c-15.12,7.188-30.244,14.281-45.186,21.841c-7.146,3.615-14.256,7.3-21.178,11.335
	c-7.239,4.22-13.474,10.123-21.077,13.683c-3.83,1.794-0.832,7.618,2.985,5.831c7.248-3.394,13.164-8.95,19.996-13.043
	c7.228-4.331,14.746-8.167,22.26-11.975c14.937-7.57,30.065-14.652,45.186-21.841C469.032,102.332,466.035,96.506,462.227,98.317z"
	/>
<path fill="#F2F2F2" d="M138.386,8.817c-9.283-5.332-29.814-9.196-35.625,3.002c-4.112,8.631,1.268,17.134,8.01,22.288
	c3.984,3.046,7.841,5.268,10.541,9.642c2.89,4.682-4.469,3.833-7.054,3.329c-13.346-2.604-38.501-8.2-39.74,12.749
	c-0.438,7.398,6.946,12.753,11.936,16.919c2.081,1.737,5.026,3.838,6.1,6.439c0.423,1.023,0.455,1.893-0.006,2.915
	c-0.586,1.298-0.137,0.886-0.95,0.656c-4.779-1.35-8.841-5.58-13.479-7.5c-5.682-2.354-11.608-1.65-16.239,2.589
	c-12.189,11.162,0.268,26.613,10.738,33.342c13.233,8.506,30.487,4.986,40.318-6.863c11.163-13.456,7.572-32.005-5.537-42.875
	c-4.64-3.848-11.345,2.781-6.663,6.663c4.243,3.518,7.246,7.983,8.948,13.225c1.973,6.076,0.126,11.212-3.372,16.255
	c-6.089,8.779-17.847,11.13-27.148,6.484c-5.204-2.6-18.442-13.578-10.579-19.595c5.4-4.133,13.278,4.094,18.061,6.37
	c7.141,3.397,14.201-0.174,15.447-8.18c1.215-7.813-4.921-13.227-10.358-17.737c-3.962-3.287-12.004-9.15-4.826-13.934
	c6.053-4.033,16.236-0.739,22.657,0.693c7.889,1.758,18.64,2.31,21.623-7.153c3.148-9.992-9.133-17.809-15.665-22.569
	c-2.928-2.134-5.3-5.386-4.576-9.217c0.454-2.397,3.19-2.876,5.211-3.237c5.45-0.973,12.715,0.705,17.469,3.436
	C138.91,19.984,143.653,11.841,138.386,8.817z"/>
<g>
	<path fill="#F2F2F2" d="M371.503,430.602c-2.079-2.129-5.323-2.339-8.054-1.898c-0.563,0.091-1.125,0.178-1.693,0.206
		c-0.131,0.007-0.259,0.007-0.388,0.001c0.68-1.432,3.05-1.863,4.401-1.774c1.616,0.108,1.713-2.399,0.103-2.504
		c-2.895-0.194-7.49,1.554-7.106,5.133c0.286,2.688,4.984,1.397,6.523,1.183c1.237-0.172,2.666,0.348,3.734,0.927
		c1.134,0.614,1.372,1.533-0.02,1.839c-2.589,0.564-5.555-0.806-8.029-1.422c-1.565-0.388-2.313,2.005-0.744,2.395
		c2.725,0.68,5.45,1.716,8.304,1.586c1.4-0.063,2.659-0.511,3.515-1.656C373.004,433.338,372.524,431.649,371.503,430.602z"/>
	<path fill="#F2F2F2" d="M374.331,423.475c-0.035,0.022-0.069,0.049-0.104,0.077c-2.524,2.11-2.852,5.368-0.559,7.788
		c2.048,2.158,5.381,2.665,7.792,0.881C386.878,428.209,378.355,419.174,374.331,423.475z M379.741,430.397
		c-1.246,1.056-3.256,0.181-4.248-0.779c-1.234-1.193-1.072-2.55-0.131-3.661c0.217-0.086,0.419-0.244,0.577-0.489
		C377.381,423.237,382.572,428,379.741,430.397z"/>
	<path fill="#F2F2F2" d="M398.932,418.175c-0.996-1.009-2.391-1.935-3.833-1.332c-0.622,0.258-1.082,0.703-1.495,1.224
		c-0.198,0.247-0.375,0.548-0.588,0.798c-0.11-0.154-0.227-0.309-0.36-0.46c-2.074-2.382-4.127-0.544-5.545,1.448
		c-0.134-0.346-0.285-0.688-0.453-1.026c-0.728-1.445-2.934-0.25-2.208,1.193c1.775,3.527,1.227,7.767,2.048,11.543
		c0.343,1.581,2.785,1.015,2.442-0.565c-0.555-2.552-0.56-5.218-0.967-7.788c0.025-0.034,0.048-0.069,0.068-0.108
		c0.5-0.895,0.966-1.85,1.628-2.638c0.161-0.193,0.474-0.609,0.761-0.62c0.348-0.015,0.672,0.47,0.89,0.923
		c0.038,0.148,0.099,0.292,0.18,0.423c0.033,0.09,0.061,0.168,0.078,0.227c0.443,1.469,0.247,3.12,0.475,4.631
		c0.097,0.647,0.366,1.235,0.642,1.822c0.14,0.297,0.287,0.589,0.433,0.885c0.036,0.072,0.317,0.749,0.313,0.57
		c0.033,1.61,2.539,1.721,2.505,0.104c-0.016-0.676-0.329-1.272-0.615-1.869c-0.468-0.978-0.845-1.789-0.934-2.887
		c-0.097-1.19-0.128-2.32-0.352-3.387c0.524-0.377,0.943-0.908,1.347-1.453c0.211-0.283,0.515-0.778,0.787-0.646
		c0.54,0.258,0.964,0.731,1.363,1.163c1.72,1.857,0.852,5.039,1.151,7.372c0.206,1.604,2.648,1.022,2.443-0.565
		c-0.223-1.716,0.013-3.465-0.201-5.188C400.737,420.381,400.042,419.299,398.932,418.175z"/>
	<path fill="#F2F2F2" d="M406.358,415.384c-0.137,0.116-0.236,0.246-0.303,0.38c-2.861,1.74-3.854,6.59-0.979,8.759
		c2.662,2.01,6.706,1.234,9.223-0.594C420.205,419.634,411.338,411.098,406.358,415.384z M413.021,421.724
		c-1.365,1.387-3.792,1.748-5.601,1.222c-2.546-0.739-1.645-4.357,0.323-5.24c0.366-0.163,0.566-0.424,0.639-0.71
		C410.781,415.575,415.394,419.314,413.021,421.724z"/>
	<path fill="#F2F2F2" d="M426.446,414.217c-2.061-0.353-4.061,0.101-6.098,0.408c-0.698,0.104-1.387,0.171-2.091,0.108
		c-0.698-0.059-0.563-0.745-0.396-1.254c0.348-1.089,2.242-1.291,3.154-1.409c1.295-0.166,2.646-0.07,3.942,0.049
		c1.615,0.147,1.706-2.358,0.106-2.506c-2.573-0.235-5.665-0.354-7.931,1.083c-1.24,0.786-1.911,2.083-1.89,3.544
		c0.029,1.893,1.401,2.872,3.165,3.021c1.792,0.153,3.668-0.426,5.438-0.648c1.903-0.238,3.7,0.31,5.243,1.399
		c0.468,0.331,0.879,0.748,1.135,1.265c0.169,0.343-1.157,0.765-1.357,0.823c-2.225,0.657-4.748-0.077-7.04,0.249
		c-1.603,0.229-1.022,2.668,0.564,2.443c2.214-0.316,4.451,0.198,6.676-0.168c1.55-0.254,3.419-1.265,3.639-2.975
		C433.095,416.63,428.826,414.625,426.446,414.217z"/>
	<path fill="#F2F2F2" d="M373.921,439.222c0.049,1.425,0.289,2.83,0.283,4.256c-0.007,1.423-0.501,2.884-0.792,4.271
		c-0.407,1.945-0.801,3.9-1.309,5.823c-1.062-1.865-2.032-3.777-3.17-5.599c-1.495-2.389-3.913-4.078-5.002-6.729
		c-0.613-1.491-2.814-0.286-2.207,1.196c1.047,2.537,3.214,4.236,4.789,6.41c0.902,1.248,1.54,2.723,2.286,4.068
		c0.81,1.464,1.665,2.902,2.6,4.291c0.598,0.889,1.925,0.866,2.3-0.225c0.95-2.762,1.511-5.638,2.107-8.493
		c0.31-1.481,0.731-2.96,0.882-4.468c0.154-1.559-0.211-3.143-0.261-4.698C376.373,437.719,373.867,437.607,373.921,439.222z"/>
	<path fill="#F2F2F2" d="M397.441,449.552c-3.53,0.861-7.037,2.937-10.719,3.163c-0.146-1.974-0.505-3.918-0.889-5.861
		c1.112-0.503,2.231-1.002,3.388-1.403c0.645-0.225,1.104-0.785,0.938-1.503c-0.141-0.614-0.857-1.164-1.505-0.939
		c-1.128,0.392-2.225,0.85-3.315,1.329c-0.374-1.974-0.687-3.954-0.733-5.966c1.27-0.304,2.535-0.632,3.778-1.041
		c1.613-0.532,3.185-1.637,4.9-1.736c1.601-0.093,1.716-2.599,0.103-2.506c-1.909,0.111-3.385,0.994-5.138,1.647
		c-1.421,0.531-2.904,0.896-4.383,1.237c-0.611-0.242-1.416-0.041-1.676,0.633c-0.329,0.4-0.335,0.994-0.096,1.444
		c0.067,5.115,1.89,10.009,2.157,15.102c-0.493,0.698-0.204,1.966,0.925,2.059c0.069,0.006,0.136,0.009,0.207,0.014
		c0.11,0.017,0.223,0.023,0.332,0.015c4.289,0.136,8.213-2.251,12.29-3.245C399.576,451.611,399.012,449.17,397.441,449.552z"/>
	<path fill="#F2F2F2" d="M412.679,430.245c-0.417,3.302-1.108,6.555-1.649,9.835c-0.35,2.126-0.364,4.313-0.668,6.447
		c-3.363-4.358-5.41-9.703-7.494-14.735c-0.617-1.492-2.815-0.286-2.204,1.195c2.487,6.008,4.958,12.347,9.483,17.157
		c0.638,0.68,1.841,0.418,2.108-0.486c0.832-2.827,0.794-5.809,1.163-8.709c0.453-3.554,1.317-7.043,1.765-10.598
		C415.386,428.743,412.878,428.656,412.679,430.245z"/>
	<path fill="#F2F2F2" d="M423.834,445.97c0.134-2.11,0.538-4.159,1.079-6.178c0.099,0.001,0.204-0.01,0.313-0.034
		c2.486-0.567,4.991-1.037,7.45-1.722c0.783,1.448,1.502,2.93,2.081,4.479c0.559,1.492,3.008,0.945,2.441-0.566
		c-2.108-5.646-5.86-10.406-8.369-15.853c-0.449-0.975-2.036-0.799-2.3,0.226c-1.675,6.541-4.771,12.716-5.199,19.543
		C421.228,447.481,423.733,447.578,423.834,445.97z M428.05,430.089c1.062,1.928,2.233,3.799,3.35,5.698
		c-1.88,0.491-3.787,0.876-5.686,1.292C426.46,434.742,427.31,432.427,428.05,430.089z"/>
</g>
</svg>
