<?xml version="1.0" encoding="utf-8"?>
<!-- Generator: Adobe Illustrator 16.0.0, SVG Export Plug-In . SVG Version: 6.00 Build 0)  -->
<!DOCTYPE svg PUBLIC "-//W3C//DTD SVG 1.1//EN" "http://www.w3.org/Graphics/SVG/1.1/DTD/svg11.dtd">
<svg version="1.1" id="Capa_1" xmlns="http://www.w3.org/2000/svg" xmlns:xlink="http://www.w3.org/1999/xlink" x="0px" y="0px"
	 width="1000px" height="120px" viewBox="0 0 1000 120" enable-background="new 0 0 1000 120" xml:space="preserve">
<g>
	<path fill="none" stroke="#F2F2F2" stroke-width="2" d="M7.219,101.572l9.415-21.148c8.981,5.939,21.728,9.995,33.461,9.995
		c11.878,0,16.513-3.331,16.513-8.257c0-16.078-57.651-4.346-57.651-42.007c0-18.106,14.775-32.882,44.904-32.882
		c13.182,0,26.798,3.043,36.792,8.836l-8.836,21.294c-9.705-5.215-19.266-7.822-28.102-7.822c-12.022,0-16.368,4.056-16.368,9.126
		c0,15.499,57.506,3.911,57.506,41.283c0,17.672-14.775,32.736-44.904,32.736C33.292,112.727,16.779,108.236,7.219,101.572z"/>
	<path fill="none" stroke="#F2F2F2" stroke-width="2" d="M102.819,60c0-30.419,23.901-52.727,56.348-52.727
		S215.514,29.581,215.514,60s-23.9,52.727-56.347,52.727S102.819,90.419,102.819,60z M186.543,60
		c0-17.527-12.023-28.971-27.377-28.971c-15.354,0-27.377,11.443-27.377,28.971s12.022,28.971,27.377,28.971
		C174.521,88.971,186.543,77.527,186.543,60z"/>
	<path fill="none" stroke="#F2F2F2" stroke-width="2" d="M322.123,110.698l-0.29-53.739l-26.073,43.744h-12.747l-25.929-42.297
		v52.292h-26.508V9.303h23.611l35.633,58.52l34.765-58.52h23.611l0.29,101.396H322.123z"/>
	<path fill="none" stroke="#F2F2F2" stroke-width="2" d="M363.549,60c0-30.419,23.901-52.727,56.348-52.727
		S476.244,29.581,476.244,60s-23.9,52.727-56.347,52.727S363.549,90.419,363.549,60z M447.274,60
		c0-17.527-12.023-28.971-27.377-28.971c-15.354,0-27.377,11.443-27.377,28.971s12.022,28.971,27.377,28.971
		C435.251,88.971,447.274,77.527,447.274,60z"/>
	<path fill="none" stroke="#F2F2F2" stroke-width="2" d="M484.209,101.572l9.415-21.148c8.981,5.939,21.727,9.995,33.461,9.995
		c11.877,0,16.512-3.331,16.512-8.257c0-16.078-57.65-4.346-57.65-42.007c0-18.106,14.774-32.882,44.904-32.882
		c13.182,0,26.797,3.043,36.793,8.836l-8.836,21.294c-9.705-5.215-19.266-7.822-28.102-7.822c-12.023,0-16.369,4.056-16.369,9.126
		c0,15.499,57.506,3.911,57.506,41.283c0,17.672-14.773,32.736-44.902,32.736C510.283,112.727,493.77,108.236,484.209,101.572z"/>
	<path fill="#F2F2F2" stroke="#F2F2F2" stroke-width="2" d="M700.182,9.303l-63.59,101.396h-28.246L585.314,9.303h29.404
		l14.484,65.906l41.428-65.906H700.182z"/>
	<path fill="#F2F2F2" stroke="#F2F2F2" stroke-width="2" d="M731.02,31.465l-3.332,17.092h45.049l-4.201,21.438h-45.193
		l-3.621,18.541h53.16l-4.635,22.162h-81.262L707.264,9.303h79.379l-4.49,22.162H731.02z"/>
	<path fill="#F2F2F2" stroke="#F2F2F2" stroke-width="2" d="M908.855,9.303l-63.59,101.396H817.02L793.988,9.303h29.404
		l14.486,65.906l41.428-65.906H908.855z"/>
	<path fill="#F2F2F2" stroke="#F2F2F2" stroke-width="2" d="M960.189,90.998h-43.166l-11.732,19.7h-30.273L940.055,9.303h28.246
		l24.48,101.396h-28.535L960.189,90.998z M955.844,69.85l-6.809-32.881l-19.41,32.881H955.844z"/>
</g>
</svg>
