<?xml version="1.0" encoding="utf-8"?>
<!-- Generator: Adobe Illustrator 16.0.0, SVG Export Plug-In . SVG Version: 6.00 Build 0)  -->
<!DOCTYPE svg PUBLIC "-//W3C//DTD SVG 1.1//EN" "http://www.w3.org/Graphics/SVG/1.1/DTD/svg11.dtd">
<svg version="1.1" id="Capa_1" xmlns="http://www.w3.org/2000/svg" xmlns:xlink="http://www.w3.org/1999/xlink" x="0px" y="0px"
	 width="500px" height="250px" viewBox="0 0 1000 500" enable-background="new 0 0 1000 500" xml:space="preserve">
<g>
	<path fill="#F2F2F2" d="M300.791,116.304L149.652,381.79H82.518L27.777,116.304h69.889l34.428,172.565l98.464-172.565H300.791z"/>
	<path fill="#F2F2F2" d="M371.705,174.331l-7.919,44.753h107.071l-9.984,56.132H353.458l-8.607,48.546h126.351l-11.017,58.027
		H267.044l48.199-265.486h188.665l-10.673,58.027H371.705z"/>
	<path fill="#F2F2F2" d="M787.249,116.304L636.108,381.79h-67.133l-54.742-265.486h69.89l34.427,172.565l98.464-172.565H787.249z"/>
	<path fill="#F2F2F2" d="M898.103,330.209H795.509L767.62,381.79h-71.953l154.582-265.486h67.133l58.185,265.486h-67.822
		L898.103,330.209z M887.775,274.837l-16.182-86.093l-46.134,86.093H887.775z"/>
</g>
</svg>
